<svg width="32" height="15" viewBox="0 0 32 15" fill="none" xmlns="http://www.w3.org/2000/svg">
<path d="M1 6.38086C0.447715 6.38086 0 6.82857 0 7.38086C0 7.93314 0.447715 8.38086 1 8.38086V6.38086ZM31.7071 8.08797C32.0976 7.69744 32.0976 7.06428 31.7071 6.67375L25.3431 0.309792C24.9526 -0.0807328 24.3195 -0.0807328 23.9289 0.309792C23.5384 0.700316 23.5384 1.33348 23.9289 1.72401L29.5858 7.38086L23.9289 13.0377C23.5384 13.4282 23.5384 14.0614 23.9289 14.4519C24.3195 14.8425 24.9526 14.8425 25.3431 14.4519L31.7071 8.08797ZM1 8.38086H31V6.38086H1V8.38086Z" fill="#F68E28"/>
</svg>
