<svg width="45" height="45" viewBox="0 0 45 45" fill="none" xmlns="http://www.w3.org/2000/svg">
<path fill-rule="evenodd" clip-rule="evenodd" d="M19.4731 15.6701C19.0387 15.4095 18.4976 15.4026 18.0568 15.6523C17.6159 15.9019 17.3434 16.3693 17.3434 16.876V28.126C17.3434 28.6326 17.6159 29.1001 18.0568 29.3497C18.4976 29.5993 19.0387 29.5925 19.4731 29.3318L28.8481 23.7068C29.2717 23.4527 29.5309 22.9949 29.5309 22.501C29.5309 22.007 29.2717 21.5493 28.8481 21.2951L19.4731 15.6701ZM25.3914 22.501L20.1559 25.6423V19.3597L25.3914 22.501Z" fill="white"/>
<path fill-rule="evenodd" clip-rule="evenodd" d="M31.9321 8.70337C25.6534 8.21216 19.3459 8.21216 13.0672 8.70337L8.8659 9.03207C6.31109 9.23194 4.22105 11.1467 3.79873 13.6743C2.8223 19.5182 2.8223 25.4837 3.79873 31.3277C4.22105 33.8552 6.31109 35.77 8.8659 35.9699L13.0672 36.2986C19.3459 36.7898 25.6534 36.7898 31.9321 36.2986L36.1334 35.9699C38.6883 35.77 40.7783 33.8552 41.2006 31.3277C42.177 25.4837 42.177 19.5182 41.2006 13.6743C40.7783 11.1467 38.6883 9.23194 36.1334 9.03207L31.9321 8.70337ZM13.2866 11.5073C19.4193 11.0275 25.5801 11.0275 31.7128 11.5073L35.9141 11.836C37.1809 11.9351 38.2172 12.8845 38.4266 14.1378C39.3517 19.6749 39.3517 25.3271 38.4266 30.8642C38.2172 32.1174 37.1809 33.0668 35.9141 33.1659L31.7128 33.4946C25.5801 33.9744 19.4193 33.9744 13.2866 33.4946L9.08527 33.1659C7.8185 33.0668 6.78218 32.1174 6.57278 30.8642C5.64762 25.3271 5.64762 19.6749 6.57278 14.1378C6.78218 12.8845 7.81849 11.9351 9.08527 11.836L13.2866 11.5073Z" fill="white"/>
</svg>
